<svg xmlns="http://www.w3.org/2000/svg" viewBox="0 0 200 260">
  <!-- 牛皮纸纹底 -->
  <rect width="200" height="260" fill="#EFE6D5"/>
  <g opacity="0.18" fill="#9C7A4A">
    <rect x="0"  y="0"   width="200" height="2"/>
    <rect x="0"  y="40"  width="200" height="2"/>
    <rect x="0"  y="80"  width="200" height="2"/>
    <rect x="0"  y="120" width="200" height="2"/>
    <rect x="0"  y="160" width="200" height="2"/>
    <rect x="0"  y="200" width="200" height="2"/>
    <rect x="0"  y="240" width="200" height="2"/>
  </g>
  <!-- 上方虚线 -->
  <line x1="14" y1="24" x2="186" y2="24" stroke="#7C5E33" stroke-width="0.8" stroke-dasharray="3 3"/>
  <text x="14" y="42" font-family="serif" font-size="10" fill="#7C5E33" letter-spacing="4">POSTCARD · 2026</text>
  <!-- 椭圆戳 1 -->
  <g transform="translate(50 100) rotate(-8)">
    <ellipse cx="0" cy="0" rx="32" ry="22" fill="none" stroke="#7C5E33" stroke-width="2"/>
    <text font-family="serif" font-size="10" fill="#7C5E33" text-anchor="middle" dy="-2">入境</text>
    <text font-family="monospace" font-size="7" fill="#7C5E33" text-anchor="middle" dy="10" letter-spacing="2">10.01</text>
  </g>
  <!-- 椭圆戳 2 -->
  <g transform="translate(120 130) rotate(6)">
    <ellipse cx="0" cy="0" rx="34" ry="22" fill="none" stroke="#9C7A4A" stroke-width="2"/>
    <text font-family="serif" font-size="10" fill="#9C7A4A" text-anchor="middle" dy="-2">游览</text>
    <text font-family="monospace" font-size="7" fill="#9C7A4A" text-anchor="middle" dy="10" letter-spacing="2">10.03</text>
  </g>
  <!-- 椭圆戳 3 -->
  <g transform="translate(70 180) rotate(-3)">
    <ellipse cx="0" cy="0" rx="32" ry="20" fill="none" stroke="#7C5E33" stroke-width="2"/>
    <text font-family="serif" font-size="10" fill="#7C5E33" text-anchor="middle" dy="-2">归途</text>
    <text font-family="monospace" font-size="7" fill="#7C5E33" text-anchor="middle" dy="10" letter-spacing="2">10.07</text>
  </g>
  <!-- 下方虚线 -->
  <line x1="14" y1="226" x2="186" y2="226" stroke="#7C5E33" stroke-width="0.8" stroke-dasharray="3 3"/>
  <text x="100" y="244" font-family="serif" font-size="10" fill="#7C5E33" text-anchor="middle" letter-spacing="3">POSTCARD</text>
</svg>
